<svg width="2870" height="2870" viewBox="0 0 2870 2870" fill="none" xmlns="http://www.w3.org/2000/svg">
<path d="M802.133 2583.71C731.7 2650.14 615.955 2600.21 615.955 2503.39V2410.88C615.955 2373.08 646.604 2342.43 684.411 2342.43H885.587C947.543 2342.43 977.628 2418.17 932.559 2460.68L802.133 2583.71ZM2277.58 255C2338.56 255 2388 304.435 2388 365.415V436.764C2388 474.571 2357.35 505.22 2319.54 505.22H1503.35C1465.54 505.22 1434.89 535.869 1434.89 573.676V1018.64C1434.89 1056.45 1465.54 1087.1 1503.35 1087.1H2319.54C2357.35 1087.1 2388 1117.75 2388 1155.55V1485.36C2388 1523.16 2357.35 1553.81 2319.54 1553.81H684.411C646.604 1553.81 615.955 1523.16 615.955 1485.36V365.414C615.955 304.434 665.39 255 726.37 255H2277.58Z" fill="white"/>
<rect x="483" y="385.012" width="1790.03" height="1790.03" rx="109.53" fill="#0822C0"/>
<path d="M1805.15 763.832C1825.24 763.832 1841.52 780.114 1841.52 800.199C1841.52 820.284 1825.24 836.566 1805.15 836.566H1083.59C1062.99 836.566 1046.29 853.266 1046.29 873.866V1019.46C1046.29 1040.06 1062.99 1056.76 1083.59 1056.76H1356.44C1376.52 1056.76 1392.8 1073.04 1392.8 1093.13C1392.8 1113.21 1376.52 1129.49 1356.44 1129.49H1083.59C1062.99 1129.49 1046.29 1146.19 1046.29 1166.79V1445.02C1046.29 1458.21 1064.12 1462.33 1069.9 1450.47L1157.27 1271.34C1164.51 1256.49 1180.53 1248.79 1196.03 1251.42C1208.01 1252.94 1218.96 1260.39 1224.44 1272.13L1350.86 1543.17C1355.37 1552.85 1369.2 1552.7 1373.5 1542.92L1497.43 1261.25C1505.52 1242.87 1526.98 1234.52 1545.37 1242.61C1552.46 1245.73 1558.06 1250.84 1561.8 1257C1562.97 1258.69 1564.01 1260.49 1564.91 1262.42L1740.18 1638.18C1748.67 1656.39 1740.79 1678.03 1722.59 1686.52C1704.39 1695.01 1682.75 1687.13 1674.26 1668.93L1531.86 1363.62L1400.17 1662.91C1399.61 1664.2 1398.97 1665.44 1398.28 1666.62C1395.41 1676.21 1388.6 1684.58 1378.82 1689.15C1360.61 1697.64 1338.97 1689.76 1330.48 1671.56L1189.95 1370.26L1044.3 1668.87C1043.58 1670.36 1042.77 1671.77 1041.88 1673.11C1035.71 1684.42 1023.71 1692.1 1009.92 1692.1C989.838 1692.1 973.556 1675.81 973.556 1655.73V1153.43C973.556 1140.21 962.84 1129.49 949.622 1129.49C929.537 1129.49 913.255 1113.21 913.255 1093.13C913.255 1073.04 929.537 1056.76 949.622 1056.76C962.84 1056.76 973.556 1046.04 973.556 1032.82V860.5C973.556 847.282 962.84 836.566 949.622 836.566C929.537 836.566 913.255 820.284 913.255 800.199C913.255 780.114 929.537 763.832 949.622 763.832H1805.15Z" fill="white"/>
<path d="M1539.02 1483.47C1554.54 1483.47 1567.12 1496.05 1567.12 1511.57C1567.12 1527.09 1554.54 1539.67 1539.02 1539.67C1523.5 1539.67 1510.92 1527.09 1510.92 1511.57C1510.92 1496.05 1523.5 1483.47 1539.02 1483.47Z" fill="white"/>
</svg>
